<mxfile host="drawio-plugin" modified="2024-01-16T22:08:15.714Z" agent="5.0 (X11; Linux x86_64) AppleWebKit/537.36 (KHTML, like Gecko) Chrome/111.0.0.0 Safari/537.36" version="20.5.3" etag="hTzZIwioL1CQHcvNO63y" type="embed"><diagram id="bks1fgTAk8cXKt9TkJ--" name="Page-1"><mxGraphModel dx="667" dy="426" grid="1" gridSize="10" guides="1" tooltips="1" connect="1" arrows="1" fold="1" page="1" pageScale="1" pageWidth="850" pageHeight="1100" math="0" shadow="0"><root><mxCell id="0"/><mxCell id="1" parent="0"/><mxCell id="5" value="Sistema" style="shape=umlActor;html=1;verticalLabelPosition=bottom;verticalAlign=top;align=center;" vertex="1" parent="1"><mxGeometry x="50" y="180" width="30" height="60" as="geometry"/></mxCell><mxCell id="9" value="Cadastrar Pagamento" style="ellipse;whiteSpace=wrap;html=1;fillColor=#6a00ff;fontColor=#ffffff;strokeColor=#3700CC;" vertex="1" parent="1"><mxGeometry x="210" y="140" width="130" height="60" as="geometry"/></mxCell><mxCell id="10" value="Listar Pagamentos" style="ellipse;whiteSpace=wrap;html=1;fillColor=#1ba1e2;fontColor=#ffffff;strokeColor=#006EAF;" vertex="1" parent="1"><mxGeometry x="220" y="230" width="120" height="60" as="geometry"/></mxCell><mxCell id="11" value="" style="endArrow=classic;html=1;rounded=0;entryX=0.015;entryY=0.633;entryDx=0;entryDy=0;entryPerimeter=0;flowAnimation=1;" edge="1" parent="1" target="9"><mxGeometry width="50" height="50" relative="1" as="geometry"><mxPoint x="80" y="210" as="sourcePoint"/><mxPoint x="130" y="160" as="targetPoint"/></mxGeometry></mxCell><mxCell id="12" value="" style="endArrow=classic;html=1;rounded=0;entryX=0;entryY=0.5;entryDx=0;entryDy=0;flowAnimation=1;" edge="1" parent="1" source="5" target="10"><mxGeometry width="50" height="50" relative="1" as="geometry"><mxPoint x="320" y="240" as="sourcePoint"/><mxPoint x="370" y="190" as="targetPoint"/></mxGeometry></mxCell><mxCell id="13" value="Validar Nome do Pagamento" style="ellipse;whiteSpace=wrap;html=1;fillColor=#008a00;fontColor=#ffffff;strokeColor=#005700;" vertex="1" parent="1"><mxGeometry x="510" y="140" width="120" height="60" as="geometry"/></mxCell><mxCell id="14" value="&amp;lt;&amp;lt;include&amp;gt;&amp;gt;" style="html=1;verticalAlign=bottom;labelBackgroundColor=none;endArrow=open;endFill=0;dashed=1;rounded=0;entryX=0;entryY=0.5;entryDx=0;entryDy=0;flowAnimation=1;" edge="1" parent="1" source="9" target="13"><mxGeometry width="160" relative="1" as="geometry"><mxPoint x="350" y="160" as="sourcePoint"/><mxPoint x="510" y="160" as="targetPoint"/></mxGeometry></mxCell></root></mxGraphModel></diagram></mxfile>